0
SECTION
2
HEADER
9
$INSUNITS
70
4
0
ENDSEC
0
SECTION
2
TABLES
0
TABLE
2
LTYPE
0
LTYPE
72
65
70
64
2
CONTINUOUS
3
______
73
0
40
0
0
ENDTAB
0
TABLE
2
LAYER
0
ENDTAB
0
ENDSEC
0
SECTION
2
ENTITIES
0
ARC
8
0
10
74.4625
20
-20.7875
40
0.5
50
180
51
270
0
ARC
8
0
10
87.4625
20
-20.7875
40
0.5
50
270
51
0
0
ARC
8
0
10
87.4625
20
-7.7875
40
0.5
50
0
51
90
0
ARC
8
0
10
74.4625
20
-7.7875
40
0.5
50
90
51
180
0
LINE
8
0
10
74.4625
20
-21.2875
11
87.4625
21
-21.2875
0
LINE
8
0
10
87.4625
20
-7.2875
11
74.4625
21
-7.2875
0
LINE
8
0
10
87.9625
20
-20.7875
11
87.9625
21
-7.7875
0
LINE
8
0
10
73.9625
20
-7.7875
11
73.9625
21
-20.7875
0
ARC
8
0
10
17.3125
20
-25.55
40
0.5
50
180
51
270
0
ARC
8
0
10
30.3125
20
-25.55
40
0.5
50
270
51
0
0
ARC
8
0
10
30.3125
20
-12.55
40
0.5
50
0
51
90
0
ARC
8
0
10
17.3125
20
-12.55
40
0.5
50
90
51
180
0
LINE
8
0
10
17.3125
20
-26.05
11
30.3125
21
-26.05
0
LINE
8
0
10
30.3125
20
-12.05
11
17.3125
21
-12.05
0
LINE
8
0
10
30.8125
20
-25.55
11
30.8125
21
-12.55
0
LINE
8
0
10
16.8125
20
-12.55
11
16.8125
21
-25.55
0
ARC
8
0
10
36.3625
20
-25.55
40
0.5
50
180
51
270
0
ARC
8
0
10
49.3625
20
-25.55
40
0.5
50
270
51
0
0
ARC
8
0
10
49.3625
20
-12.55
40
0.5
50
0
51
90
0
ARC
8
0
10
36.3625
20
-12.55
40
0.5
50
90
51
180
0
LINE
8
0
10
36.3625
20
-26.05
11
49.3625
21
-26.05
0
LINE
8
0
10
49.3625
20
-12.05
11
36.3625
21
-12.05
0
LINE
8
0
10
49.8625
20
-25.55
11
49.8625
21
-12.55
0
LINE
8
0
10
35.8625
20
-12.55
11
35.8625
21
-25.55
0
ARC
8
0
10
55.4125
20
-25.55
40
0.5
50
180
51
270
0
ARC
8
0
10
68.4125
20
-25.55
40
0.5
50
270
51
0
0
ARC
8
0
10
68.4125
20
-12.55
40
0.5
50
0
51
90
0
ARC
8
0
10
55.4125
20
-12.55
40
0.5
50
90
51
180
0
LINE
8
0
10
55.4125
20
-26.05
11
68.4125
21
-26.05
0
LINE
8
0
10
68.4125
20
-12.05
11
55.4125
21
-12.05
0
LINE
8
0
10
68.9125
20
-25.55
11
68.9125
21
-12.55
0
LINE
8
0
10
54.9125
20
-12.55
11
54.9125
21
-25.55
0
ARC
8
0
10
3.025
20
-44.6
40
0.5
50
180
51
270
0
ARC
8
0
10
16.025
20
-44.6
40
0.5
50
270
51
0
0
ARC
8
0
10
16.025
20
-31.6
40
0.5
50
0
51
90
0
ARC
8
0
10
3.025
20
-31.6
40
0.5
50
90
51
180
0
LINE
8
0
10
3.025
20
-45.1
11
16.025
21
-45.1
0
LINE
8
0
10
16.025
20
-31.1
11
3.025
21
-31.1
0
LINE
8
0
10
16.525
20
-44.6
11
16.525
21
-31.6
0
LINE
8
0
10
2.525
20
-31.6
11
2.525
21
-44.6
0
ARC
8
0
10
3.025
20
-63.65
40
0.5
50
180
51
270
0
ARC
8
0
10
16.025
20
-63.65
40
0.5
50
270
51
0
0
ARC
8
0
10
16.025
20
-50.65
40
0.5
50
0
51
90
0
ARC
8
0
10
3.025
20
-50.65
40
0.5
50
90
51
180
0
LINE
8
0
10
3.025
20
-64.15
11
16.025
21
-64.15
0
LINE
8
0
10
16.025
20
-50.15
11
3.025
21
-50.15
0
LINE
8
0
10
16.525
20
-63.65
11
16.525
21
-50.65
0
LINE
8
0
10
2.525
20
-50.65
11
2.525
21
-63.65
0
ARC
8
0
10
36.3625
20
-68.4125
40
0.5
50
180
51
270
0
ARC
8
0
10
49.3625
20
-68.4125
40
0.5
50
270
51
0
0
ARC
8
0
10
49.3625
20
-55.4125
40
0.5
50
0
51
90
0
ARC
8
0
10
36.3625
20
-55.4125
40
0.5
50
90
51
180
0
LINE
8
0
10
36.3625
20
-68.9125
11
49.3625
21
-68.9125
0
LINE
8
0
10
49.3625
20
-54.9125
11
36.3625
21
-54.9125
0
LINE
8
0
10
49.8625
20
-68.4125
11
49.8625
21
-55.4125
0
LINE
8
0
10
35.8625
20
-55.4125
11
35.8625
21
-68.4125
0
ARC
8
0
10
55.4125
20
-63.65
40
0.5
50
180
51
270
0
ARC
8
0
10
68.4125
20
-63.65
40
0.5
50
270
51
0
0
ARC
8
0
10
68.4125
20
-50.65
40
0.5
50
0
51
90
0
ARC
8
0
10
55.4125
20
-50.65
40
0.5
50
90
51
180
0
LINE
8
0
10
55.4125
20
-64.15
11
68.4125
21
-64.15
0
LINE
8
0
10
68.4125
20
-50.15
11
55.4125
21
-50.15
0
LINE
8
0
10
68.9125
20
-63.65
11
68.9125
21
-50.65
0
LINE
8
0
10
54.9125
20
-50.65
11
54.9125
21
-63.65
0
ARC
8
0
10
74.4625
20
-63.65
40
0.5
50
180
51
270
0
ARC
8
0
10
87.4625
20
-63.65
40
0.5
50
270
51
0
0
ARC
8
0
10
87.4625
20
-50.65
40
0.5
50
0
51
90
0
ARC
8
0
10
74.4625
20
-50.65
40
0.5
50
90
51
180
0
LINE
8
0
10
74.4625
20
-64.15
11
87.4625
21
-64.15
0
LINE
8
0
10
87.4625
20
-50.15
11
74.4625
21
-50.15
0
LINE
8
0
10
87.9625
20
-63.65
11
87.9625
21
-50.65
0
LINE
8
0
10
73.9625
20
-50.65
11
73.9625
21
-63.65
0
ARC
8
0
10
93.5125
20
-63.65
40
0.5
50
180
51
270
0
ARC
8
0
10
106.5125
20
-63.65
40
0.5
50
270
51
0
0
ARC
8
0
10
106.5125
20
-50.65
40
0.5
50
0
51
90
0
ARC
8
0
10
93.5125
20
-50.65
40
0.5
50
90
51
180
0
LINE
8
0
10
93.5125
20
-64.15
11
106.5125
21
-64.15
0
LINE
8
0
10
106.5125
20
-50.15
11
93.5125
21
-50.15
0
LINE
8
0
10
107.0125
20
-63.65
11
107.0125
21
-50.65
0
LINE
8
0
10
93.0125
20
-50.65
11
93.0125
21
-63.65
0
ARC
8
0
10
112.5625
20
-68.4125
40
0.5
50
180
51
270
0
ARC
8
0
10
125.5625
20
-68.4125
40
0.5
50
270
51
0
0
ARC
8
0
10
125.5625
20
-55.4125
40
0.5
50
0
51
90
0
ARC
8
0
10
112.5625
20
-55.4125
40
0.5
50
90
51
180
0
LINE
8
0
10
112.5625
20
-68.9125
11
125.5625
21
-68.9125
0
LINE
8
0
10
125.5625
20
-54.9125
11
112.5625
21
-54.9125
0
LINE
8
0
10
126.0625
20
-68.4125
11
126.0625
21
-55.4125
0
LINE
8
0
10
112.0625
20
-55.4125
11
112.0625
21
-68.4125
0
ARC
8
0
10
3.025
20
-82.7
40
0.5
50
180
51
270
0
ARC
8
0
10
16.025
20
-82.7
40
0.5
50
270
51
0
0
ARC
8
0
10
16.025
20
-69.7
40
0.5
50
0
51
90
0
ARC
8
0
10
3.025
20
-69.7
40
0.5
50
90
51
180
0
LINE
8
0
10
3.025
20
-83.2
11
16.025
21
-83.2
0
LINE
8
0
10
16.025
20
-69.2
11
3.025
21
-69.2
0
LINE
8
0
10
16.525
20
-82.7
11
16.525
21
-69.7
0
LINE
8
0
10
2.525
20
-69.7
11
2.525
21
-82.7
0
ARC
8
0
10
74.4625
20
-82.7
40
0.5
50
180
51
270
0
ARC
8
0
10
87.4625
20
-82.7
40
0.5
50
270
51
0
0
ARC
8
0
10
87.4625
20
-69.7
40
0.5
50
0
51
90
0
ARC
8
0
10
74.4625
20
-69.7
40
0.5
50
90
51
180
0
LINE
8
0
10
74.4625
20
-83.2
11
87.4625
21
-83.2
0
LINE
8
0
10
87.4625
20
-69.2
11
74.4625
21
-69.2
0
LINE
8
0
10
87.9625
20
-82.7
11
87.9625
21
-69.7
0
LINE
8
0
10
73.9625
20
-69.7
11
73.9625
21
-82.7
0
ARC
8
0
10
17.3125
20
-101.75
40
0.5
50
180
51
270
0
ARC
8
0
10
30.3125
20
-101.75
40
0.5
50
270
51
0
0
ARC
8
0
10
30.3125
20
-88.75
40
0.5
50
0
51
90
0
ARC
8
0
10
17.3125
20
-88.75
40
0.5
50
90
51
180
0
LINE
8
0
10
17.3125
20
-102.25
11
30.3125
21
-102.25
0
LINE
8
0
10
30.3125
20
-88.25
11
17.3125
21
-88.25
0
LINE
8
0
10
30.8125
20
-101.75
11
30.8125
21
-88.75
0
LINE
8
0
10
16.8125
20
-88.75
11
16.8125
21
-101.75
0
ARC
8
0
10
36.3625
20
-101.75
40
0.5
50
180
51
270
0
ARC
8
0
10
49.3625
20
-101.75
40
0.5
50
270
51
0
0
ARC
8
0
10
49.3625
20
-88.75
40
0.5
50
0
51
90
0
ARC
8
0
10
36.3625
20
-88.75
40
0.5
50
90
51
180
0
LINE
8
0
10
36.3625
20
-102.25
11
49.3625
21
-102.25
0
LINE
8
0
10
49.3625
20
-88.25
11
36.3625
21
-88.25
0
LINE
8
0
10
49.8625
20
-101.75
11
49.8625
21
-88.75
0
LINE
8
0
10
35.8625
20
-88.75
11
35.8625
21
-101.75
0
ARC
8
0
10
55.4125
20
-101.75
40
0.5
50
180
51
270
0
ARC
8
0
10
68.4125
20
-101.75
40
0.5
50
270
51
0
0
ARC
8
0
10
68.4125
20
-88.75
40
0.5
50
0
51
90
0
ARC
8
0
10
55.4125
20
-88.75
40
0.5
50
90
51
180
0
LINE
8
0
10
55.4125
20
-102.25
11
68.4125
21
-102.25
0
LINE
8
0
10
68.4125
20
-88.25
11
55.4125
21
-88.25
0
LINE
8
0
10
68.9125
20
-101.75
11
68.9125
21
-88.75
0
LINE
8
0
10
54.9125
20
-88.75
11
54.9125
21
-101.75
0
ARC
8
0
10
74.4625
20
-101.75
40
0.5
50
180
51
270
0
ARC
8
0
10
87.4625
20
-101.75
40
0.5
50
270
51
0
0
ARC
8
0
10
87.4625
20
-88.75
40
0.5
50
0
51
90
0
ARC
8
0
10
74.4625
20
-88.75
40
0.5
50
90
51
180
0
LINE
8
0
10
74.4625
20
-102.25
11
87.4625
21
-102.25
0
LINE
8
0
10
87.4625
20
-88.25
11
74.4625
21
-88.25
0
LINE
8
0
10
87.9625
20
-101.75
11
87.9625
21
-88.75
0
LINE
8
0
10
73.9625
20
-88.75
11
73.9625
21
-101.75
0
ARC
8
0
10
74.4625
20
-120.8
40
0.5
50
180
51
270
0
ARC
8
0
10
87.4625
20
-120.8
40
0.5
50
270
51
0
0
ARC
8
0
10
87.4625
20
-107.8
40
0.5
50
0
51
90
0
ARC
8
0
10
74.4625
20
-107.8
40
0.5
50
90
51
180
0
LINE
8
0
10
74.4625
20
-121.3
11
87.4625
21
-121.3
0
LINE
8
0
10
87.4625
20
-107.3
11
74.4625
21
-107.3
0
LINE
8
0
10
87.9625
20
-120.8
11
87.9625
21
-107.8
0
LINE
8
0
10
73.9625
20
-107.8
11
73.9625
21
-120.8
0
ARC
8
0
10
74.4625
20
-139.85
40
0.5
50
180
51
270
0
ARC
8
0
10
87.4625
20
-139.85
40
0.5
50
270
51
0
0
ARC
8
0
10
87.4625
20
-126.85
40
0.5
50
0
51
90
0
ARC
8
0
10
74.4625
20
-126.85
40
0.5
50
90
51
180
0
LINE
8
0
10
74.4625
20
-140.35
11
87.4625
21
-140.35
0
LINE
8
0
10
87.4625
20
-126.35
11
74.4625
21
-126.35
0
LINE
8
0
10
87.9625
20
-139.85
11
87.9625
21
-126.85
0
LINE
8
0
10
73.9625
20
-126.85
11
73.9625
21
-139.85
0
ARC
8
0
10
66.1495
20
-140.85
40
0.5
50
180
51
270
0
ARC
8
0
10
71.8995
20
-140.85
40
0.5
50
270
51
0
0
ARC
8
0
10
71.8995
20
-127.85
40
0.5
50
0
51
90
0
ARC
8
0
10
66.1495
20
-127.85
40
0.5
50
90
51
180
0
LINE
8
0
10
66.1495
20
-141.35
11
71.8995
21
-141.35
0
LINE
8
0
10
71.8995
20
-127.35
11
66.1495
21
-127.35
0
LINE
8
0
10
72.3995
20
-140.85
11
72.3995
21
-127.85
0
LINE
8
0
10
65.6495
20
-127.85
11
65.6495
21
-140.85
0
ARC
8
0
10
90.0255
20
-140.85
40
0.5
50
180
51
270
0
ARC
8
0
10
95.7755
20
-140.85
40
0.5
50
270
51
0
0
ARC
8
0
10
95.7755
20
-127.85
40
0.5
50
0
51
90
0
ARC
8
0
10
90.0255
20
-127.85
40
0.5
50
90
51
180
0
LINE
8
0
10
90.0255
20
-141.35
11
95.7755
21
-141.35
0
LINE
8
0
10
95.7755
20
-127.35
11
90.0255
21
-127.35
0
LINE
8
0
10
96.2755
20
-140.85
11
96.2755
21
-127.85
0
LINE
8
0
10
89.5255
20
-127.85
11
89.5255
21
-140.85
0
ENDSEC
0
EOF