M48
; DRILL file {KiCad (6.0.1)} date Sun Feb 27 23:30:42 2022
; FORMAT={-:-/ absolute / inch / decimal}
; #@! TF.CreationDate,2022-02-27T23:30:42-05:00
; #@! TF.GenerationSoftware,Kicad,Pcbnew,(6.0.1)
; #@! TF.FileFunction,Plated,1,2,PTH
FMAT,2
INCH
; #@! TA.AperFunction,Plated,PTH,ComponentDrill
T1C0.0138
; #@! TA.AperFunction,Plated,PTH,ComponentDrill
T2C0.0157
; #@! TA.AperFunction,Plated,PTH,ComponentDrill
T3C0.0236
; #@! TA.AperFunction,Plated,PTH,ComponentDrill
T4C0.0276
; #@! TA.AperFunction,Plated,PTH,ComponentDrill
T5C0.0579
%
G90
G05
T1
X10.3561Y-5.9498
X10.3561Y-6.0
X10.3561Y-6.0502
X10.4062Y-5.9498
X10.4062Y-6.0
X10.4062Y-6.0502
X10.4564Y-5.9498
X10.4564Y-6.0
X10.4564Y-6.0502
T2
X10.2891Y-4.9334
X10.2891Y-4.9866
X10.3226Y-4.9334
X10.3226Y-4.9866
X10.3561Y-4.9334
X10.3561Y-4.9866
X10.3895Y-4.9334
X10.3895Y-4.9866
X10.423Y-4.9334
X10.423Y-4.9866
X10.4564Y-4.9334
X10.4564Y-4.9866
X10.4899Y-4.9334
X10.4899Y-4.9866
X10.5234Y-4.9334
X10.5234Y-4.9866
T4
X8.5652Y-6.0938
X8.5652Y-6.8438
X8.5652Y-7.5938
X8.8723Y-6.0938
X8.8723Y-6.8438
X8.8723Y-7.5938
X9.1277Y-5.3438
X9.1277Y-8.3438
X9.4348Y-5.3438
X9.4348Y-8.3438
X9.8777Y-5.3438
X9.8777Y-7.0312
X9.8777Y-8.3438
X10.1848Y-5.3438
X10.1848Y-7.0312
X10.1848Y-8.3438
X10.6277Y-5.3438
X10.6277Y-6.8438
X10.6277Y-8.3438
X10.9348Y-5.3438
X10.9348Y-6.8438
X10.9348Y-8.3438
X11.3777Y-5.1562
X11.3777Y-6.8438
X11.3777Y-7.5938
X11.3777Y-8.3438
X11.3777Y-9.0938
X11.3777Y-9.8438
X11.6848Y-5.1562
X11.6848Y-6.8438
X11.6848Y-7.5938
X11.6848Y-8.3438
X11.6848Y-9.0938
X11.6848Y-9.8438
X12.1277Y-6.8438
X12.4348Y-6.8438
X12.8777Y-7.0312
X13.1848Y-7.0312
T5
X8.5687Y-5.8062
X8.5687Y-6.5562
X8.5687Y-7.3062
X8.6203Y-5.7488
X8.6203Y-6.4988
X8.6203Y-7.2488
X8.8172Y-5.7291
X8.8172Y-6.4791
X8.8172Y-7.2291
X8.8187Y-5.7062
X8.8187Y-6.4562
X8.8187Y-7.2062
X9.1312Y-5.0562
X9.1312Y-8.0563
X9.1828Y-4.9988
X9.1828Y-7.9988
X9.3797Y-4.9791
X9.3797Y-7.9791
X9.3812Y-4.9562
X9.3812Y-7.9562
X9.8812Y-5.0562
X9.8812Y-6.7437
X9.8812Y-8.0563
X9.9328Y-4.9988
X9.9328Y-6.6863
X9.9328Y-7.9988
X10.1297Y-4.9791
X10.1297Y-6.6666
X10.1297Y-7.9791
X10.1312Y-4.9562
X10.1312Y-6.6437
X10.1312Y-7.9562
X10.6312Y-5.0562
X10.6312Y-6.5562
X10.6312Y-8.0563
X10.6828Y-4.9988
X10.6828Y-6.4988
X10.6828Y-7.9988
X10.8797Y-4.9791
X10.8797Y-6.4791
X10.8797Y-7.9791
X10.8812Y-4.9562
X10.8812Y-6.4562
X10.8812Y-7.9562
X11.3812Y-4.8687
X11.3812Y-6.5562
X11.3812Y-7.3062
X11.3812Y-8.0563
X11.3812Y-8.8063
X11.3812Y-9.5563
X11.4328Y-4.8113
X11.4328Y-6.4988
X11.4328Y-7.2488
X11.4328Y-7.9988
X11.4328Y-8.7488
X11.4328Y-9.4988
X11.6297Y-4.7916
X11.6297Y-6.4791
X11.6297Y-7.2291
X11.6297Y-7.9791
X11.6297Y-8.7291
X11.6297Y-9.4791
X11.6312Y-4.7687
X11.6312Y-6.4562
X11.6312Y-7.2062
X11.6312Y-7.9562
X11.6312Y-8.7062
X11.6312Y-9.4562
X12.1312Y-6.5562
X12.1828Y-6.4988
X12.3797Y-6.4791
X12.3812Y-6.4562
X12.8812Y-6.7437
X12.9328Y-6.6863
X13.1297Y-6.6666
X13.1312Y-6.6437
T3
G00X10.236Y-4.8307
M15
G01X10.236Y-4.7992
M16
G05
G00X10.236Y-4.9775
M15
G01X10.236Y-4.9185
M16
G05
G00X10.5765Y-4.8307
M15
G01X10.5765Y-4.7992
M16
G05
G00X10.5765Y-4.9775
M15
G01X10.5765Y-4.9185
M16
G05
T0
M30
