M48
; DRILL file {KiCad (6.0.1)} date Sun Feb 27 23:30:42 2022
; FORMAT={-:-/ absolute / inch / decimal}
; #@! TF.CreationDate,2022-02-27T23:30:42-05:00
; #@! TF.GenerationSoftware,Kicad,Pcbnew,(6.0.1)
; #@! TF.FileFunction,NonPlated,1,2,NPTH
FMAT,2
INCH
; #@! TA.AperFunction,NonPlated,NPTH,ComponentDrill
T1C0.0689
; #@! TA.AperFunction,NonPlated,NPTH,ComponentDrill
T2C0.1200
; #@! TA.AperFunction,NonPlated,NPTH,ComponentDrill
T3C0.1570
%
G90
G05
T1
X8.5187Y-5.9062
X8.5187Y-6.6562
X8.5187Y-7.4062
X8.9187Y-5.9062
X8.9187Y-6.6562
X8.9187Y-7.4062
X9.0812Y-5.1562
X9.0812Y-8.1562
X9.4812Y-5.1562
X9.4812Y-8.1562
X9.8312Y-5.1562
X9.8312Y-6.8438
X9.8312Y-8.1562
X10.2312Y-5.1562
X10.2312Y-6.8438
X10.2312Y-8.1562
X10.5812Y-5.1562
X10.5812Y-6.6562
X10.5812Y-8.1562
X10.9812Y-5.1562
X10.9812Y-6.6562
X10.9812Y-8.1562
X11.3312Y-4.9688
X11.3312Y-6.6562
X11.3312Y-7.4062
X11.3312Y-8.1562
X11.3312Y-8.9062
X11.3312Y-9.6562
X11.7312Y-4.9688
X11.7312Y-6.6562
X11.7312Y-7.4062
X11.7312Y-8.1562
X11.7312Y-8.9062
X11.7312Y-9.6562
X12.0812Y-6.6562
X12.4812Y-6.6562
X12.8312Y-6.8438
X13.2312Y-6.8438
T2
X11.0612Y-9.3812
X12.0012Y-9.3812
T3
X8.7188Y-5.9062
X8.7188Y-6.6562
X8.7188Y-7.4062
X9.2812Y-5.1562
X9.2812Y-8.1562
X10.0312Y-5.1562
X10.0312Y-6.8438
X10.0312Y-8.1562
X10.7812Y-5.1562
X10.7812Y-6.6562
X10.7812Y-8.1562
X11.0612Y-9.9812
X11.5312Y-4.9688
X11.5312Y-6.6562
X11.5312Y-7.4062
X11.5312Y-8.1562
X11.5312Y-8.9062
X11.5312Y-9.6562
X12.0012Y-9.9812
X12.2812Y-6.6562
X13.0312Y-6.8438
T0
M30
