G04 #@! TF.GenerationSoftware,KiCad,Pcbnew,(6.0.1)*
G04 #@! TF.CreationDate,2022-02-27T23:30:46-05:00*
G04 #@! TF.ProjectId,keyboard,6b657962-6f61-4726-942e-6b696361645f,rev?*
G04 #@! TF.SameCoordinates,Original*
G04 #@! TF.FileFunction,Soldermask,Top*
G04 #@! TF.FilePolarity,Negative*
%FSLAX46Y46*%
G04 Gerber Fmt 4.6, Leading zero omitted, Abs format (unit mm)*
G04 Created by KiCad (PCBNEW (6.0.1)) date 2022-02-27 23:30:46*
%MOMM*%
%LPD*%
G01*
G04 APERTURE LIST*
G04 #@! TA.AperFunction,Profile*
%ADD10C,0.100000*%
G04 #@! TD*
G04 #@! TA.AperFunction,Profile*
%ADD11C,0.200000*%
G04 #@! TD*
%ADD12R,1.200000X1.200000*%
%ADD13R,1.600000X1.600000*%
%ADD14C,1.600000*%
%ADD15C,1.750000*%
%ADD16C,3.987800*%
%ADD17C,3.048000*%
%ADD18C,0.650000*%
%ADD19O,1.108000X2.216000*%
G04 APERTURE END LIST*
D10*
X303609375Y-130968750D02*
X303609375Y-116681250D01*
X316706250Y-234553125D02*
X304800000Y-234553125D01*
X316706250Y-255984375D02*
G75*
G03*
X317896875Y-254793750I0J1190625D01*
G01*
X320278125Y-180975000D02*
X320278125Y-183356250D01*
X322659375Y-161925000D02*
G75*
G03*
X323850000Y-163115625I1190625J0D01*
G01*
X211931250Y-139303125D02*
G75*
G03*
X210740625Y-140493750I0J-1190625D01*
G01*
X284559375Y-157162500D02*
G75*
G03*
X285750000Y-158353125I1190625J0D01*
G01*
X303609375Y-233362500D02*
X303609375Y-180975000D01*
X242887500Y-120253125D02*
X280987500Y-120253125D01*
X280987500Y-120253125D02*
G75*
G03*
X282178125Y-119062500I0J1190625D01*
G01*
X304800000Y-179784375D02*
X319087500Y-179784375D01*
X282178125Y-219075000D02*
X282178125Y-233362500D01*
X317896875Y-254793750D02*
X317896875Y-235743750D01*
X226218750Y-217884375D02*
X280987500Y-217884375D01*
X341709375Y-183356250D02*
X341709375Y-178593750D01*
X303609375Y-233362500D02*
G75*
G03*
X304800000Y-234553125I1190625J0D01*
G01*
X284559375Y-141684375D02*
X284559375Y-138112500D01*
X225028125Y-200025000D02*
G75*
G03*
X223837500Y-198834375I-1190625J0D01*
G01*
X226218750Y-120253125D02*
X242887500Y-120253125D01*
X211931250Y-198834375D02*
X223837500Y-198834375D01*
X317896875Y-235743750D02*
G75*
G03*
X316706250Y-234553125I-1190625J0D01*
G01*
X210740625Y-197643750D02*
G75*
G03*
X211931250Y-198834375I1190625J0D01*
G01*
X225028125Y-216693750D02*
G75*
G03*
X226218750Y-217884375I1190625J0D01*
G01*
X302418750Y-136921875D02*
G75*
G03*
X303609375Y-135731250I0J1190625D01*
G01*
X304800000Y-179784375D02*
G75*
G03*
X303609375Y-180975000I0J-1190625D01*
G01*
X282178125Y-219075000D02*
G75*
G03*
X280987500Y-217884375I-1190625J0D01*
G01*
X280987500Y-234553125D02*
X269081250Y-234553125D01*
X225028125Y-121443750D02*
X225028125Y-138112500D01*
X285750000Y-136921875D02*
X302418750Y-136921875D01*
X341709375Y-164306250D02*
G75*
G03*
X340518750Y-163115625I-1190625J0D01*
G01*
X223837500Y-139303125D02*
G75*
G03*
X225028125Y-138112500I0J1190625D01*
G01*
X320278125Y-183356250D02*
G75*
G03*
X321468750Y-184546875I1190625J0D01*
G01*
X280987500Y-234553125D02*
G75*
G03*
X282178125Y-233362500I0J1190625D01*
G01*
X282178125Y-119062500D02*
X282178125Y-116681250D01*
X321468750Y-184546875D02*
X340518750Y-184546875D01*
X341709375Y-178593750D02*
X341709375Y-164306250D01*
X284559375Y-141684375D02*
X284559375Y-157162500D01*
D11*
X345518751Y-259793750D02*
G75*
G03*
X345518751Y-259793750I-1J0D01*
G01*
D10*
X269081250Y-255984375D02*
X316706250Y-255984375D01*
X322659375Y-161925000D02*
X322659375Y-159543750D01*
X267890625Y-254793750D02*
G75*
G03*
X269081250Y-255984375I1190625J0D01*
G01*
X226218750Y-120253125D02*
G75*
G03*
X225028125Y-121443750I0J-1190625D01*
G01*
X223837500Y-139303125D02*
X211931250Y-139303125D01*
X340518750Y-163115625D02*
X323850000Y-163115625D01*
X267890625Y-235743750D02*
X267890625Y-254793750D01*
X285750000Y-136921875D02*
G75*
G03*
X284559375Y-138112500I0J-1190625D01*
G01*
X303609375Y-135731250D02*
X303609375Y-130968750D01*
X225028125Y-200025000D02*
X225028125Y-216693750D01*
X303609375Y-116681250D02*
G75*
G03*
X302418750Y-115490625I-1190625J0D01*
G01*
X269081250Y-234553125D02*
G75*
G03*
X267890625Y-235743750I0J-1190625D01*
G01*
X340518750Y-184546875D02*
G75*
G03*
X341709375Y-183356250I0J1190625D01*
G01*
X283368750Y-115490625D02*
G75*
G03*
X282178125Y-116681250I0J-1190625D01*
G01*
X322659375Y-159543750D02*
G75*
G03*
X321468750Y-158353125I-1190625J0D01*
G01*
X320278125Y-180975000D02*
G75*
G03*
X319087500Y-179784375I-1190625J0D01*
G01*
X285750000Y-158353125D02*
X321468750Y-158353125D01*
X210740625Y-140493750D02*
X210740625Y-197643750D01*
X283368750Y-115490625D02*
X302418750Y-115490625D01*
D12*
X234168750Y-135731250D03*
D13*
X231843750Y-135731250D03*
D12*
X237318750Y-135731250D03*
D14*
X239643750Y-135731250D03*
D12*
X219881250Y-192881250D03*
D13*
X217556250Y-192881250D03*
D12*
X223031250Y-192881250D03*
D14*
X225356250Y-192881250D03*
D12*
X291318750Y-173831250D03*
D13*
X288993750Y-173831250D03*
D12*
X294468750Y-173831250D03*
D14*
X296793750Y-173831250D03*
D15*
X226536250Y-169068750D03*
X216376250Y-169068750D03*
D16*
X221456250Y-169068750D03*
D13*
X269943750Y-135731250D03*
D12*
X272268750Y-135731250D03*
D14*
X277743750Y-135731250D03*
D12*
X275418750Y-135731250D03*
D13*
X250893750Y-211931250D03*
D12*
X253218750Y-211931250D03*
D14*
X258693750Y-211931250D03*
D12*
X256368750Y-211931250D03*
D15*
X297973750Y-207168750D03*
X287813750Y-207168750D03*
D16*
X292893750Y-207168750D03*
X221456250Y-188118750D03*
D15*
X216376250Y-188118750D03*
X226536250Y-188118750D03*
D13*
X288993750Y-130968750D03*
D12*
X291318750Y-130968750D03*
X294468750Y-130968750D03*
D14*
X296793750Y-130968750D03*
D15*
X230663750Y-207168750D03*
D16*
X235743750Y-207168750D03*
D15*
X240823750Y-207168750D03*
D12*
X272268750Y-211931250D03*
D13*
X269943750Y-211931250D03*
D12*
X275418750Y-211931250D03*
D14*
X277743750Y-211931250D03*
D15*
X259873750Y-130968750D03*
D16*
X254793750Y-130968750D03*
D15*
X249713750Y-130968750D03*
D12*
X219881250Y-154781250D03*
D13*
X217556250Y-154781250D03*
D12*
X223031250Y-154781250D03*
D14*
X225356250Y-154781250D03*
D12*
X291318750Y-250031250D03*
D13*
X288993750Y-250031250D03*
D14*
X296793750Y-250031250D03*
D12*
X294468750Y-250031250D03*
D15*
X297973750Y-126206250D03*
X287813750Y-126206250D03*
D16*
X292893750Y-126206250D03*
D13*
X288993750Y-211931250D03*
D12*
X291318750Y-211931250D03*
X294468750Y-211931250D03*
D14*
X296793750Y-211931250D03*
D15*
X287813750Y-245268750D03*
D17*
X280955750Y-238283750D03*
D16*
X292893750Y-245268750D03*
D15*
X297973750Y-245268750D03*
D17*
X304831750Y-238283750D03*
D16*
X280955750Y-253523750D03*
X304831750Y-253523750D03*
D12*
X253218750Y-135731250D03*
D13*
X250893750Y-135731250D03*
D14*
X258693750Y-135731250D03*
D12*
X256368750Y-135731250D03*
D16*
X292893750Y-188118750D03*
D15*
X297973750Y-188118750D03*
X287813750Y-188118750D03*
D12*
X329418750Y-178593750D03*
D13*
X327093750Y-178593750D03*
D14*
X334893750Y-178593750D03*
D12*
X332568750Y-178593750D03*
D15*
X306863750Y-169068750D03*
X317023750Y-169068750D03*
D16*
X311943750Y-169068750D03*
X273843750Y-207168750D03*
D15*
X278923750Y-207168750D03*
X268763750Y-207168750D03*
D18*
X267293750Y-126659375D03*
X266443750Y-126659375D03*
X265593750Y-126659375D03*
X264743750Y-126659375D03*
X263893750Y-126659375D03*
X263043750Y-126659375D03*
X262193750Y-126659375D03*
X261343750Y-126659375D03*
X261343750Y-125309375D03*
X262193750Y-125309375D03*
X263043750Y-125309375D03*
X263893750Y-125309375D03*
X264743750Y-125309375D03*
X265593750Y-125309375D03*
X266443750Y-125309375D03*
X267293750Y-125309375D03*
D19*
X268643750Y-125679375D03*
X259993750Y-125679375D03*
X259993750Y-122299375D03*
X268643750Y-122299375D03*
D13*
X269943750Y-173831250D03*
D12*
X272268750Y-173831250D03*
X275418750Y-173831250D03*
D14*
X277743750Y-173831250D03*
D13*
X308043750Y-173831250D03*
D12*
X310368750Y-173831250D03*
X313518750Y-173831250D03*
D14*
X315843750Y-173831250D03*
D15*
X259873750Y-173831250D03*
D16*
X254793750Y-173831250D03*
D15*
X249713750Y-173831250D03*
D12*
X234168750Y-211931250D03*
D13*
X231843750Y-211931250D03*
D14*
X239643750Y-211931250D03*
D12*
X237318750Y-211931250D03*
D15*
X259873750Y-207168750D03*
D16*
X254793750Y-207168750D03*
D15*
X249713750Y-207168750D03*
D16*
X273843750Y-169068750D03*
D15*
X278923750Y-169068750D03*
X268763750Y-169068750D03*
D16*
X292893750Y-226218750D03*
D15*
X287813750Y-226218750D03*
X297973750Y-226218750D03*
D12*
X291318750Y-192881250D03*
D13*
X288993750Y-192881250D03*
D12*
X294468750Y-192881250D03*
D14*
X296793750Y-192881250D03*
D13*
X250893750Y-178593750D03*
D12*
X253218750Y-178593750D03*
D14*
X258693750Y-178593750D03*
D12*
X256368750Y-178593750D03*
D15*
X278923750Y-130968750D03*
X268763750Y-130968750D03*
D16*
X273843750Y-130968750D03*
D12*
X219881250Y-173831250D03*
D13*
X217556250Y-173831250D03*
D12*
X223031250Y-173831250D03*
D14*
X225356250Y-173831250D03*
D15*
X240823750Y-130968750D03*
X230663750Y-130968750D03*
D16*
X235743750Y-130968750D03*
X330993750Y-173831250D03*
D15*
X336073750Y-173831250D03*
X325913750Y-173831250D03*
D16*
X292893750Y-169068750D03*
D15*
X297973750Y-169068750D03*
X287813750Y-169068750D03*
D16*
X221456250Y-150018750D03*
D15*
X226536250Y-150018750D03*
X216376250Y-150018750D03*
D13*
X288993750Y-230981250D03*
D12*
X291318750Y-230981250D03*
D14*
X296793750Y-230981250D03*
D12*
X294468750Y-230981250D03*
M02*
