G04 #@! TF.GenerationSoftware,KiCad,Pcbnew,(6.0.1)*
G04 #@! TF.CreationDate,2022-02-27T23:30:46-05:00*
G04 #@! TF.ProjectId,keyboard,6b657962-6f61-4726-942e-6b696361645f,rev?*
G04 #@! TF.SameCoordinates,Original*
G04 #@! TF.FileFunction,Legend,Top*
G04 #@! TF.FilePolarity,Positive*
%FSLAX46Y46*%
G04 Gerber Fmt 4.6, Leading zero omitted, Abs format (unit mm)*
G04 Created by KiCad (PCBNEW (6.0.1)) date 2022-02-27 23:30:46*
%MOMM*%
%LPD*%
G01*
G04 APERTURE LIST*
G04 #@! TA.AperFunction,Profile*
%ADD10C,0.100000*%
G04 #@! TD*
G04 #@! TA.AperFunction,Profile*
%ADD11C,0.200000*%
G04 #@! TD*
%ADD12C,0.200000*%
%ADD13R,1.600000X1.600000*%
%ADD14C,1.600000*%
G04 APERTURE END LIST*
D10*
X303609375Y-130968750D02*
X303609375Y-116681250D01*
X316706250Y-234553125D02*
X304800000Y-234553125D01*
X316706250Y-255984375D02*
G75*
G03*
X317896875Y-254793750I0J1190625D01*
G01*
X320278125Y-180975000D02*
X320278125Y-183356250D01*
X322659375Y-161925000D02*
G75*
G03*
X323850000Y-163115625I1190625J0D01*
G01*
X211931250Y-139303125D02*
G75*
G03*
X210740625Y-140493750I0J-1190625D01*
G01*
X284559375Y-157162500D02*
G75*
G03*
X285750000Y-158353125I1190625J0D01*
G01*
X303609375Y-233362500D02*
X303609375Y-180975000D01*
X242887500Y-120253125D02*
X280987500Y-120253125D01*
X280987500Y-120253125D02*
G75*
G03*
X282178125Y-119062500I0J1190625D01*
G01*
X304800000Y-179784375D02*
X319087500Y-179784375D01*
X282178125Y-219075000D02*
X282178125Y-233362500D01*
X317896875Y-254793750D02*
X317896875Y-235743750D01*
X226218750Y-217884375D02*
X280987500Y-217884375D01*
X341709375Y-183356250D02*
X341709375Y-178593750D01*
X303609375Y-233362500D02*
G75*
G03*
X304800000Y-234553125I1190625J0D01*
G01*
X284559375Y-141684375D02*
X284559375Y-138112500D01*
X225028125Y-200025000D02*
G75*
G03*
X223837500Y-198834375I-1190625J0D01*
G01*
X226218750Y-120253125D02*
X242887500Y-120253125D01*
X211931250Y-198834375D02*
X223837500Y-198834375D01*
X317896875Y-235743750D02*
G75*
G03*
X316706250Y-234553125I-1190625J0D01*
G01*
X210740625Y-197643750D02*
G75*
G03*
X211931250Y-198834375I1190625J0D01*
G01*
X225028125Y-216693750D02*
G75*
G03*
X226218750Y-217884375I1190625J0D01*
G01*
X302418750Y-136921875D02*
G75*
G03*
X303609375Y-135731250I0J1190625D01*
G01*
X304800000Y-179784375D02*
G75*
G03*
X303609375Y-180975000I0J-1190625D01*
G01*
X282178125Y-219075000D02*
G75*
G03*
X280987500Y-217884375I-1190625J0D01*
G01*
X280987500Y-234553125D02*
X269081250Y-234553125D01*
X225028125Y-121443750D02*
X225028125Y-138112500D01*
X285750000Y-136921875D02*
X302418750Y-136921875D01*
X341709375Y-164306250D02*
G75*
G03*
X340518750Y-163115625I-1190625J0D01*
G01*
X223837500Y-139303125D02*
G75*
G03*
X225028125Y-138112500I0J1190625D01*
G01*
X320278125Y-183356250D02*
G75*
G03*
X321468750Y-184546875I1190625J0D01*
G01*
X280987500Y-234553125D02*
G75*
G03*
X282178125Y-233362500I0J1190625D01*
G01*
X282178125Y-119062500D02*
X282178125Y-116681250D01*
X321468750Y-184546875D02*
X340518750Y-184546875D01*
X341709375Y-178593750D02*
X341709375Y-164306250D01*
X284559375Y-141684375D02*
X284559375Y-157162500D01*
D11*
X345518751Y-259793750D02*
G75*
G03*
X345518751Y-259793750I-1J0D01*
G01*
D10*
X269081250Y-255984375D02*
X316706250Y-255984375D01*
X322659375Y-161925000D02*
X322659375Y-159543750D01*
X267890625Y-254793750D02*
G75*
G03*
X269081250Y-255984375I1190625J0D01*
G01*
X226218750Y-120253125D02*
G75*
G03*
X225028125Y-121443750I0J-1190625D01*
G01*
X223837500Y-139303125D02*
X211931250Y-139303125D01*
X340518750Y-163115625D02*
X323850000Y-163115625D01*
X267890625Y-235743750D02*
X267890625Y-254793750D01*
X285750000Y-136921875D02*
G75*
G03*
X284559375Y-138112500I0J-1190625D01*
G01*
X303609375Y-135731250D02*
X303609375Y-130968750D01*
X225028125Y-200025000D02*
X225028125Y-216693750D01*
X303609375Y-116681250D02*
G75*
G03*
X302418750Y-115490625I-1190625J0D01*
G01*
X269081250Y-234553125D02*
G75*
G03*
X267890625Y-235743750I0J-1190625D01*
G01*
X340518750Y-184546875D02*
G75*
G03*
X341709375Y-183356250I0J1190625D01*
G01*
X283368750Y-115490625D02*
G75*
G03*
X282178125Y-116681250I0J-1190625D01*
G01*
X322659375Y-159543750D02*
G75*
G03*
X321468750Y-158353125I-1190625J0D01*
G01*
X320278125Y-180975000D02*
G75*
G03*
X319087500Y-179784375I-1190625J0D01*
G01*
X285750000Y-158353125D02*
X321468750Y-158353125D01*
X210740625Y-140493750D02*
X210740625Y-197643750D01*
X283368750Y-115490625D02*
X302418750Y-115490625D01*
D12*
X233118750Y-134531250D02*
X233118750Y-136931250D01*
X232743750Y-134531250D02*
X238543750Y-134531250D01*
X238543750Y-136931250D02*
X232743750Y-136931250D01*
X232943750Y-134531250D02*
X232943750Y-136931250D01*
X233293750Y-134531250D02*
X233293750Y-136931250D01*
X238543750Y-134531250D02*
X238543750Y-136931250D01*
X232718750Y-136931250D02*
X232718750Y-134531250D01*
X233468750Y-134531250D02*
X233468750Y-136931250D01*
X232818750Y-134531250D02*
X232818750Y-136931250D01*
X219181250Y-191681250D02*
X219181250Y-194081250D01*
X218456250Y-191681250D02*
X224256250Y-191681250D01*
X224256250Y-194081250D02*
X218456250Y-194081250D01*
X218531250Y-191681250D02*
X218531250Y-194081250D01*
X224256250Y-191681250D02*
X224256250Y-194081250D01*
X218431250Y-194081250D02*
X218431250Y-191681250D01*
X219006250Y-191681250D02*
X219006250Y-194081250D01*
X218656250Y-191681250D02*
X218656250Y-194081250D01*
X218831250Y-191681250D02*
X218831250Y-194081250D01*
X289868750Y-175031250D02*
X289868750Y-172631250D01*
X290268750Y-172631250D02*
X290268750Y-175031250D01*
X289968750Y-172631250D02*
X289968750Y-175031250D01*
X295693750Y-172631250D02*
X295693750Y-175031250D01*
X290443750Y-172631250D02*
X290443750Y-175031250D01*
X289893750Y-172631250D02*
X295693750Y-172631250D01*
X295693750Y-175031250D02*
X289893750Y-175031250D01*
X290618750Y-172631250D02*
X290618750Y-175031250D01*
X290093750Y-172631250D02*
X290093750Y-175031250D01*
X276643750Y-134531250D02*
X276643750Y-136931250D01*
X270843750Y-134531250D02*
X276643750Y-134531250D01*
X271218750Y-134531250D02*
X271218750Y-136931250D01*
X271043750Y-134531250D02*
X271043750Y-136931250D01*
X271393750Y-134531250D02*
X271393750Y-136931250D01*
X271568750Y-134531250D02*
X271568750Y-136931250D01*
X276643750Y-136931250D02*
X270843750Y-136931250D01*
X270818750Y-136931250D02*
X270818750Y-134531250D01*
X270918750Y-134531250D02*
X270918750Y-136931250D01*
X252168750Y-210731250D02*
X252168750Y-213131250D01*
X251793750Y-210731250D02*
X257593750Y-210731250D01*
X252343750Y-210731250D02*
X252343750Y-213131250D01*
X251768750Y-213131250D02*
X251768750Y-210731250D01*
X251868750Y-210731250D02*
X251868750Y-213131250D01*
X257593750Y-210731250D02*
X257593750Y-213131250D01*
X257593750Y-213131250D02*
X251793750Y-213131250D01*
X251993750Y-210731250D02*
X251993750Y-213131250D01*
X252518750Y-210731250D02*
X252518750Y-213131250D01*
X289968750Y-129768750D02*
X289968750Y-132168750D01*
X290618750Y-129768750D02*
X290618750Y-132168750D01*
X289893750Y-129768750D02*
X295693750Y-129768750D01*
X295693750Y-129768750D02*
X295693750Y-132168750D01*
X290268750Y-129768750D02*
X290268750Y-132168750D01*
X289868750Y-132168750D02*
X289868750Y-129768750D01*
X295693750Y-132168750D02*
X289893750Y-132168750D01*
X290093750Y-129768750D02*
X290093750Y-132168750D01*
X290443750Y-129768750D02*
X290443750Y-132168750D01*
X270843750Y-210731250D02*
X276643750Y-210731250D01*
X271043750Y-210731250D02*
X271043750Y-213131250D01*
X271393750Y-210731250D02*
X271393750Y-213131250D01*
X271218750Y-210731250D02*
X271218750Y-213131250D01*
X270918750Y-210731250D02*
X270918750Y-213131250D01*
X270818750Y-213131250D02*
X270818750Y-210731250D01*
X271568750Y-210731250D02*
X271568750Y-213131250D01*
X276643750Y-213131250D02*
X270843750Y-213131250D01*
X276643750Y-210731250D02*
X276643750Y-213131250D01*
X219006250Y-153581250D02*
X219006250Y-155981250D01*
X224256250Y-153581250D02*
X224256250Y-155981250D01*
X219181250Y-153581250D02*
X219181250Y-155981250D01*
X218831250Y-153581250D02*
X218831250Y-155981250D01*
X218456250Y-153581250D02*
X224256250Y-153581250D01*
X218431250Y-155981250D02*
X218431250Y-153581250D01*
X218656250Y-153581250D02*
X218656250Y-155981250D01*
X218531250Y-153581250D02*
X218531250Y-155981250D01*
X224256250Y-155981250D02*
X218456250Y-155981250D01*
X289868750Y-251231250D02*
X289868750Y-248831250D01*
X295693750Y-251231250D02*
X289893750Y-251231250D01*
X295693750Y-248831250D02*
X295693750Y-251231250D01*
X289968750Y-248831250D02*
X289968750Y-251231250D01*
X290443750Y-248831250D02*
X290443750Y-251231250D01*
X289893750Y-248831250D02*
X295693750Y-248831250D01*
X290093750Y-248831250D02*
X290093750Y-251231250D01*
X290618750Y-248831250D02*
X290618750Y-251231250D01*
X290268750Y-248831250D02*
X290268750Y-251231250D01*
X290443750Y-210731250D02*
X290443750Y-213131250D01*
X290093750Y-210731250D02*
X290093750Y-213131250D01*
X295693750Y-213131250D02*
X289893750Y-213131250D01*
X295693750Y-210731250D02*
X295693750Y-213131250D01*
X289893750Y-210731250D02*
X295693750Y-210731250D01*
X290618750Y-210731250D02*
X290618750Y-213131250D01*
X289868750Y-213131250D02*
X289868750Y-210731250D01*
X290268750Y-210731250D02*
X290268750Y-213131250D01*
X289968750Y-210731250D02*
X289968750Y-213131250D01*
X251793750Y-134531250D02*
X257593750Y-134531250D01*
X251868750Y-134531250D02*
X251868750Y-136931250D01*
X252168750Y-134531250D02*
X252168750Y-136931250D01*
X252518750Y-134531250D02*
X252518750Y-136931250D01*
X251768750Y-136931250D02*
X251768750Y-134531250D01*
X251993750Y-134531250D02*
X251993750Y-136931250D01*
X257593750Y-134531250D02*
X257593750Y-136931250D01*
X257593750Y-136931250D02*
X251793750Y-136931250D01*
X252343750Y-134531250D02*
X252343750Y-136931250D01*
X328068750Y-177393750D02*
X328068750Y-179793750D01*
X328718750Y-177393750D02*
X328718750Y-179793750D01*
X333793750Y-179793750D02*
X327993750Y-179793750D01*
X333793750Y-177393750D02*
X333793750Y-179793750D01*
X327993750Y-177393750D02*
X333793750Y-177393750D01*
X328368750Y-177393750D02*
X328368750Y-179793750D01*
X328193750Y-177393750D02*
X328193750Y-179793750D01*
X327968750Y-179793750D02*
X327968750Y-177393750D01*
X328543750Y-177393750D02*
X328543750Y-179793750D01*
X268793750Y-120909375D02*
X268793750Y-120559375D01*
X268793750Y-120559375D02*
X259843750Y-120559375D01*
X259843750Y-120559375D02*
X259843750Y-120909375D01*
X268793750Y-127219375D02*
X259843750Y-127219375D01*
X271393750Y-172631250D02*
X271393750Y-175031250D01*
X270843750Y-172631250D02*
X276643750Y-172631250D01*
X276643750Y-175031250D02*
X270843750Y-175031250D01*
X276643750Y-172631250D02*
X276643750Y-175031250D01*
X270918750Y-172631250D02*
X270918750Y-175031250D01*
X270818750Y-175031250D02*
X270818750Y-172631250D01*
X271568750Y-172631250D02*
X271568750Y-175031250D01*
X271218750Y-172631250D02*
X271218750Y-175031250D01*
X271043750Y-172631250D02*
X271043750Y-175031250D01*
X309018750Y-172631250D02*
X309018750Y-175031250D01*
X309318750Y-172631250D02*
X309318750Y-175031250D01*
X314743750Y-172631250D02*
X314743750Y-175031250D01*
X308918750Y-175031250D02*
X308918750Y-172631250D01*
X309493750Y-172631250D02*
X309493750Y-175031250D01*
X308943750Y-172631250D02*
X314743750Y-172631250D01*
X309668750Y-172631250D02*
X309668750Y-175031250D01*
X309143750Y-172631250D02*
X309143750Y-175031250D01*
X314743750Y-175031250D02*
X308943750Y-175031250D01*
X232718750Y-213131250D02*
X232718750Y-210731250D01*
X232943750Y-210731250D02*
X232943750Y-213131250D01*
X238543750Y-213131250D02*
X232743750Y-213131250D01*
X233118750Y-210731250D02*
X233118750Y-213131250D01*
X233468750Y-210731250D02*
X233468750Y-213131250D01*
X232743750Y-210731250D02*
X238543750Y-210731250D01*
X233293750Y-210731250D02*
X233293750Y-213131250D01*
X238543750Y-210731250D02*
X238543750Y-213131250D01*
X232818750Y-210731250D02*
X232818750Y-213131250D01*
X290268750Y-191681250D02*
X290268750Y-194081250D01*
X290093750Y-191681250D02*
X290093750Y-194081250D01*
X295693750Y-191681250D02*
X295693750Y-194081250D01*
X289868750Y-194081250D02*
X289868750Y-191681250D01*
X290443750Y-191681250D02*
X290443750Y-194081250D01*
X289893750Y-191681250D02*
X295693750Y-191681250D01*
X289968750Y-191681250D02*
X289968750Y-194081250D01*
X295693750Y-194081250D02*
X289893750Y-194081250D01*
X290618750Y-191681250D02*
X290618750Y-194081250D01*
X251868750Y-177393750D02*
X251868750Y-179793750D01*
X251993750Y-177393750D02*
X251993750Y-179793750D01*
X257593750Y-179793750D02*
X251793750Y-179793750D01*
X251768750Y-179793750D02*
X251768750Y-177393750D01*
X257593750Y-177393750D02*
X257593750Y-179793750D01*
X251793750Y-177393750D02*
X257593750Y-177393750D01*
X252518750Y-177393750D02*
X252518750Y-179793750D01*
X252168750Y-177393750D02*
X252168750Y-179793750D01*
X252343750Y-177393750D02*
X252343750Y-179793750D01*
X218456250Y-172631250D02*
X224256250Y-172631250D01*
X218656250Y-172631250D02*
X218656250Y-175031250D01*
X218531250Y-172631250D02*
X218531250Y-175031250D01*
X219006250Y-172631250D02*
X219006250Y-175031250D01*
X224256250Y-175031250D02*
X218456250Y-175031250D01*
X224256250Y-172631250D02*
X224256250Y-175031250D01*
X219181250Y-172631250D02*
X219181250Y-175031250D01*
X218431250Y-175031250D02*
X218431250Y-172631250D01*
X218831250Y-172631250D02*
X218831250Y-175031250D01*
X289968750Y-229781250D02*
X289968750Y-232181250D01*
X295693750Y-232181250D02*
X289893750Y-232181250D01*
X290443750Y-229781250D02*
X290443750Y-232181250D01*
X290093750Y-229781250D02*
X290093750Y-232181250D01*
X295693750Y-229781250D02*
X295693750Y-232181250D01*
X289868750Y-232181250D02*
X289868750Y-229781250D01*
X290618750Y-229781250D02*
X290618750Y-232181250D01*
X290268750Y-229781250D02*
X290268750Y-232181250D01*
X289893750Y-229781250D02*
X295693750Y-229781250D01*
D13*
X231843750Y-135731250D03*
D14*
X239643750Y-135731250D03*
D13*
X217556250Y-192881250D03*
D14*
X225356250Y-192881250D03*
D13*
X288993750Y-173831250D03*
D14*
X296793750Y-173831250D03*
D13*
X269943750Y-135731250D03*
D14*
X277743750Y-135731250D03*
D13*
X250893750Y-211931250D03*
D14*
X258693750Y-211931250D03*
D13*
X288993750Y-130968750D03*
D14*
X296793750Y-130968750D03*
D13*
X269943750Y-211931250D03*
D14*
X277743750Y-211931250D03*
D13*
X217556250Y-154781250D03*
D14*
X225356250Y-154781250D03*
D13*
X288993750Y-250031250D03*
D14*
X296793750Y-250031250D03*
D13*
X288993750Y-211931250D03*
D14*
X296793750Y-211931250D03*
D13*
X250893750Y-135731250D03*
D14*
X258693750Y-135731250D03*
D13*
X327093750Y-178593750D03*
D14*
X334893750Y-178593750D03*
D13*
X269943750Y-173831250D03*
D14*
X277743750Y-173831250D03*
D13*
X308043750Y-173831250D03*
D14*
X315843750Y-173831250D03*
D13*
X231843750Y-211931250D03*
D14*
X239643750Y-211931250D03*
D13*
X288993750Y-192881250D03*
D14*
X296793750Y-192881250D03*
D13*
X250893750Y-178593750D03*
D14*
X258693750Y-178593750D03*
D13*
X217556250Y-173831250D03*
D14*
X225356250Y-173831250D03*
D13*
X288993750Y-230981250D03*
D14*
X296793750Y-230981250D03*
M02*
