G04 #@! TF.GenerationSoftware,KiCad,Pcbnew,(6.0.1)*
G04 #@! TF.CreationDate,2022-02-27T23:30:46-05:00*
G04 #@! TF.ProjectId,keyboard,6b657962-6f61-4726-942e-6b696361645f,rev?*
G04 #@! TF.SameCoordinates,Original*
G04 #@! TF.FileFunction,Soldermask,Bot*
G04 #@! TF.FilePolarity,Negative*
%FSLAX46Y46*%
G04 Gerber Fmt 4.6, Leading zero omitted, Abs format (unit mm)*
G04 Created by KiCad (PCBNEW (6.0.1)) date 2022-02-27 23:30:46*
%MOMM*%
%LPD*%
G01*
G04 APERTURE LIST*
G04 Aperture macros list*
%AMRoundRect*
0 Rectangle with rounded corners*
0 $1 Rounding radius*
0 $2 $3 $4 $5 $6 $7 $8 $9 X,Y pos of 4 corners*
0 Add a 4 corners polygon primitive as box body*
4,1,4,$2,$3,$4,$5,$6,$7,$8,$9,$2,$3,0*
0 Add four circle primitives for the rounded corners*
1,1,$1+$1,$2,$3*
1,1,$1+$1,$4,$5*
1,1,$1+$1,$6,$7*
1,1,$1+$1,$8,$9*
0 Add four rect primitives between the rounded corners*
20,1,$1+$1,$2,$3,$4,$5,0*
20,1,$1+$1,$4,$5,$6,$7,0*
20,1,$1+$1,$6,$7,$8,$9,0*
20,1,$1+$1,$8,$9,$2,$3,0*%
%AMHorizOval*
0 Thick line with rounded ends*
0 $1 width*
0 $2 $3 position (X,Y) of the first rounded end (center of the circle)*
0 $4 $5 position (X,Y) of the second rounded end (center of the circle)*
0 Add line between two ends*
20,1,$1,$2,$3,$4,$5,0*
0 Add two circle primitives to create the rounded ends*
1,1,$1,$2,$3*
1,1,$1,$4,$5*%
G04 Aperture macros list end*
G04 #@! TA.AperFunction,Profile*
%ADD10C,0.100000*%
G04 #@! TD*
G04 #@! TA.AperFunction,Profile*
%ADD11C,0.200000*%
G04 #@! TD*
%ADD12R,1.600000X1.600000*%
%ADD13C,1.600000*%
%ADD14C,1.750000*%
%ADD15C,3.987800*%
%ADD16HorizOval,2.250000X0.655001X0.730000X-0.655001X-0.730000X0*%
%ADD17C,2.250000*%
%ADD18HorizOval,2.250000X0.020000X0.290000X-0.020000X-0.290000X0*%
%ADD19C,3.048000*%
%ADD20C,0.650000*%
%ADD21O,1.108000X2.216000*%
%ADD22RoundRect,0.050000X0.387500X0.050000X-0.387500X0.050000X-0.387500X-0.050000X0.387500X-0.050000X0*%
%ADD23RoundRect,0.050000X0.050000X0.387500X-0.050000X0.387500X-0.050000X-0.387500X0.050000X-0.387500X0*%
%ADD24RoundRect,0.144000X1.456000X1.456000X-1.456000X1.456000X-1.456000X-1.456000X1.456000X-1.456000X0*%
%ADD25RoundRect,0.150000X0.587500X0.150000X-0.587500X0.150000X-0.587500X-0.150000X0.587500X-0.150000X0*%
%ADD26RoundRect,0.150000X0.512500X0.150000X-0.512500X0.150000X-0.512500X-0.150000X0.512500X-0.150000X0*%
G04 APERTURE END LIST*
D10*
X303609375Y-130968750D02*
X303609375Y-116681250D01*
X316706250Y-234553125D02*
X304800000Y-234553125D01*
X316706250Y-255984375D02*
G75*
G03*
X317896875Y-254793750I0J1190625D01*
G01*
X320278125Y-180975000D02*
X320278125Y-183356250D01*
X322659375Y-161925000D02*
G75*
G03*
X323850000Y-163115625I1190625J0D01*
G01*
X211931250Y-139303125D02*
G75*
G03*
X210740625Y-140493750I0J-1190625D01*
G01*
X284559375Y-157162500D02*
G75*
G03*
X285750000Y-158353125I1190625J0D01*
G01*
X303609375Y-233362500D02*
X303609375Y-180975000D01*
X242887500Y-120253125D02*
X280987500Y-120253125D01*
X280987500Y-120253125D02*
G75*
G03*
X282178125Y-119062500I0J1190625D01*
G01*
X304800000Y-179784375D02*
X319087500Y-179784375D01*
X282178125Y-219075000D02*
X282178125Y-233362500D01*
X317896875Y-254793750D02*
X317896875Y-235743750D01*
X226218750Y-217884375D02*
X280987500Y-217884375D01*
X341709375Y-183356250D02*
X341709375Y-178593750D01*
X303609375Y-233362500D02*
G75*
G03*
X304800000Y-234553125I1190625J0D01*
G01*
X284559375Y-141684375D02*
X284559375Y-138112500D01*
X225028125Y-200025000D02*
G75*
G03*
X223837500Y-198834375I-1190625J0D01*
G01*
X226218750Y-120253125D02*
X242887500Y-120253125D01*
X211931250Y-198834375D02*
X223837500Y-198834375D01*
X317896875Y-235743750D02*
G75*
G03*
X316706250Y-234553125I-1190625J0D01*
G01*
X210740625Y-197643750D02*
G75*
G03*
X211931250Y-198834375I1190625J0D01*
G01*
X225028125Y-216693750D02*
G75*
G03*
X226218750Y-217884375I1190625J0D01*
G01*
X302418750Y-136921875D02*
G75*
G03*
X303609375Y-135731250I0J1190625D01*
G01*
X304800000Y-179784375D02*
G75*
G03*
X303609375Y-180975000I0J-1190625D01*
G01*
X282178125Y-219075000D02*
G75*
G03*
X280987500Y-217884375I-1190625J0D01*
G01*
X280987500Y-234553125D02*
X269081250Y-234553125D01*
X225028125Y-121443750D02*
X225028125Y-138112500D01*
X285750000Y-136921875D02*
X302418750Y-136921875D01*
X341709375Y-164306250D02*
G75*
G03*
X340518750Y-163115625I-1190625J0D01*
G01*
X223837500Y-139303125D02*
G75*
G03*
X225028125Y-138112500I0J1190625D01*
G01*
X320278125Y-183356250D02*
G75*
G03*
X321468750Y-184546875I1190625J0D01*
G01*
X280987500Y-234553125D02*
G75*
G03*
X282178125Y-233362500I0J1190625D01*
G01*
X282178125Y-119062500D02*
X282178125Y-116681250D01*
X321468750Y-184546875D02*
X340518750Y-184546875D01*
X341709375Y-178593750D02*
X341709375Y-164306250D01*
X284559375Y-141684375D02*
X284559375Y-157162500D01*
D11*
X345518751Y-259793750D02*
G75*
G03*
X345518751Y-259793750I-1J0D01*
G01*
D10*
X269081250Y-255984375D02*
X316706250Y-255984375D01*
X322659375Y-161925000D02*
X322659375Y-159543750D01*
X267890625Y-254793750D02*
G75*
G03*
X269081250Y-255984375I1190625J0D01*
G01*
X226218750Y-120253125D02*
G75*
G03*
X225028125Y-121443750I0J-1190625D01*
G01*
X223837500Y-139303125D02*
X211931250Y-139303125D01*
X340518750Y-163115625D02*
X323850000Y-163115625D01*
X267890625Y-235743750D02*
X267890625Y-254793750D01*
X285750000Y-136921875D02*
G75*
G03*
X284559375Y-138112500I0J-1190625D01*
G01*
X303609375Y-135731250D02*
X303609375Y-130968750D01*
X225028125Y-200025000D02*
X225028125Y-216693750D01*
X303609375Y-116681250D02*
G75*
G03*
X302418750Y-115490625I-1190625J0D01*
G01*
X269081250Y-234553125D02*
G75*
G03*
X267890625Y-235743750I0J-1190625D01*
G01*
X340518750Y-184546875D02*
G75*
G03*
X341709375Y-183356250I0J1190625D01*
G01*
X283368750Y-115490625D02*
G75*
G03*
X282178125Y-116681250I0J-1190625D01*
G01*
X322659375Y-159543750D02*
G75*
G03*
X321468750Y-158353125I-1190625J0D01*
G01*
X320278125Y-180975000D02*
G75*
G03*
X319087500Y-179784375I-1190625J0D01*
G01*
X285750000Y-158353125D02*
X321468750Y-158353125D01*
X210740625Y-140493750D02*
X210740625Y-197643750D01*
X283368750Y-115490625D02*
X302418750Y-115490625D01*
D12*
X231843750Y-135731250D03*
D13*
X239643750Y-135731250D03*
D12*
X217556250Y-192881250D03*
D13*
X225356250Y-192881250D03*
D12*
X288993750Y-173831250D03*
D13*
X296793750Y-173831250D03*
D14*
X226536250Y-169068750D03*
X216376250Y-169068750D03*
D15*
X221456250Y-169068750D03*
D16*
X218301251Y-165798750D03*
D17*
X218956250Y-165068750D03*
D18*
X223976250Y-164278750D03*
D17*
X223996250Y-163988750D03*
D12*
X269943750Y-135731250D03*
D13*
X277743750Y-135731250D03*
D12*
X250893750Y-211931250D03*
D13*
X258693750Y-211931250D03*
D14*
X297973750Y-207168750D03*
X287813750Y-207168750D03*
D15*
X292893750Y-207168750D03*
D16*
X289738751Y-203898750D03*
D17*
X290393750Y-203168750D03*
D18*
X295413750Y-202378750D03*
D17*
X295433750Y-202088750D03*
D15*
X221456250Y-188118750D03*
D14*
X216376250Y-188118750D03*
X226536250Y-188118750D03*
D16*
X218301251Y-184848750D03*
D17*
X218956250Y-184118750D03*
X223996250Y-183038750D03*
D18*
X223976250Y-183328750D03*
D12*
X288993750Y-130968750D03*
D13*
X296793750Y-130968750D03*
D14*
X230663750Y-207168750D03*
D15*
X235743750Y-207168750D03*
D14*
X240823750Y-207168750D03*
D16*
X232588751Y-203898750D03*
D17*
X233243750Y-203168750D03*
X238283750Y-202088750D03*
D18*
X238263750Y-202378750D03*
D12*
X269943750Y-211931250D03*
D13*
X277743750Y-211931250D03*
D14*
X259873750Y-130968750D03*
D15*
X254793750Y-130968750D03*
D14*
X249713750Y-130968750D03*
D17*
X252293750Y-126968750D03*
D16*
X251638751Y-127698750D03*
D17*
X257333750Y-125888750D03*
D18*
X257313750Y-126178750D03*
D12*
X217556250Y-154781250D03*
D13*
X225356250Y-154781250D03*
D12*
X288993750Y-250031250D03*
D13*
X296793750Y-250031250D03*
D14*
X297973750Y-126206250D03*
X287813750Y-126206250D03*
D15*
X292893750Y-126206250D03*
D17*
X290393750Y-122206250D03*
D16*
X289738751Y-122936250D03*
D18*
X295413750Y-121416250D03*
D17*
X295433750Y-121126250D03*
D12*
X288993750Y-211931250D03*
D13*
X296793750Y-211931250D03*
D14*
X287813750Y-245268750D03*
D19*
X280955750Y-238283750D03*
D15*
X292893750Y-245268750D03*
D14*
X297973750Y-245268750D03*
D19*
X304831750Y-238283750D03*
D15*
X280955750Y-253523750D03*
X304831750Y-253523750D03*
D16*
X289738751Y-241998750D03*
D17*
X290393750Y-241268750D03*
X295433750Y-240188750D03*
D18*
X295413750Y-240478750D03*
D12*
X250893750Y-135731250D03*
D13*
X258693750Y-135731250D03*
D15*
X292893750Y-188118750D03*
D14*
X297973750Y-188118750D03*
X287813750Y-188118750D03*
D17*
X290393750Y-184118750D03*
D16*
X289738751Y-184848750D03*
D17*
X295433750Y-183038750D03*
D18*
X295413750Y-183328750D03*
D12*
X327093750Y-178593750D03*
D13*
X334893750Y-178593750D03*
D14*
X306863750Y-169068750D03*
X317023750Y-169068750D03*
D15*
X311943750Y-169068750D03*
D16*
X308788751Y-165798750D03*
D17*
X309443750Y-165068750D03*
D18*
X314463750Y-164278750D03*
D17*
X314483750Y-163988750D03*
D15*
X273843750Y-207168750D03*
D14*
X278923750Y-207168750D03*
X268763750Y-207168750D03*
D17*
X271343750Y-203168750D03*
D16*
X270688751Y-203898750D03*
D18*
X276363750Y-202378750D03*
D17*
X276383750Y-202088750D03*
D20*
X267293750Y-126659375D03*
X266443750Y-126659375D03*
X265593750Y-126659375D03*
X264743750Y-126659375D03*
X263893750Y-126659375D03*
X263043750Y-126659375D03*
X262193750Y-126659375D03*
X261343750Y-126659375D03*
X261343750Y-125309375D03*
X262193750Y-125309375D03*
X263043750Y-125309375D03*
X263893750Y-125309375D03*
X264743750Y-125309375D03*
X265593750Y-125309375D03*
X266443750Y-125309375D03*
X267293750Y-125309375D03*
D21*
X268643750Y-125679375D03*
X259993750Y-125679375D03*
X259993750Y-122299375D03*
X268643750Y-122299375D03*
D12*
X269943750Y-173831250D03*
D13*
X277743750Y-173831250D03*
D12*
X308043750Y-173831250D03*
D13*
X315843750Y-173831250D03*
D14*
X259873750Y-173831250D03*
D15*
X254793750Y-173831250D03*
D14*
X249713750Y-173831250D03*
D17*
X252293750Y-169831250D03*
D16*
X251638751Y-170561250D03*
D17*
X257333750Y-168751250D03*
D18*
X257313750Y-169041250D03*
D12*
X231843750Y-211931250D03*
D13*
X239643750Y-211931250D03*
D14*
X259873750Y-207168750D03*
D15*
X254793750Y-207168750D03*
D14*
X249713750Y-207168750D03*
D17*
X252293750Y-203168750D03*
D16*
X251638751Y-203898750D03*
D17*
X257333750Y-202088750D03*
D18*
X257313750Y-202378750D03*
D15*
X273843750Y-169068750D03*
D14*
X278923750Y-169068750D03*
X268763750Y-169068750D03*
D17*
X271343750Y-165068750D03*
D16*
X270688751Y-165798750D03*
D18*
X276363750Y-164278750D03*
D17*
X276383750Y-163988750D03*
D15*
X292893750Y-226218750D03*
D14*
X287813750Y-226218750D03*
X297973750Y-226218750D03*
D16*
X289738751Y-222948750D03*
D17*
X290393750Y-222218750D03*
X295433750Y-221138750D03*
D18*
X295413750Y-221428750D03*
D12*
X288993750Y-192881250D03*
D13*
X296793750Y-192881250D03*
D12*
X250893750Y-178593750D03*
D13*
X258693750Y-178593750D03*
D14*
X278923750Y-130968750D03*
X268763750Y-130968750D03*
D15*
X273843750Y-130968750D03*
D16*
X270688751Y-127698750D03*
D17*
X271343750Y-126968750D03*
D18*
X276363750Y-126178750D03*
D17*
X276383750Y-125888750D03*
D12*
X217556250Y-173831250D03*
D13*
X225356250Y-173831250D03*
D14*
X240823750Y-130968750D03*
X230663750Y-130968750D03*
D15*
X235743750Y-130968750D03*
D16*
X232588751Y-127698750D03*
D17*
X233243750Y-126968750D03*
X238283750Y-125888750D03*
D18*
X238263750Y-126178750D03*
D15*
X330993750Y-173831250D03*
D14*
X336073750Y-173831250D03*
X325913750Y-173831250D03*
D17*
X328493750Y-169831250D03*
D16*
X327838751Y-170561250D03*
D17*
X333533750Y-168751250D03*
D18*
X333513750Y-169041250D03*
D15*
X292893750Y-169068750D03*
D14*
X297973750Y-169068750D03*
X287813750Y-169068750D03*
D17*
X290393750Y-165068750D03*
D16*
X289738751Y-165798750D03*
D17*
X295433750Y-163988750D03*
D18*
X295413750Y-164278750D03*
D15*
X221456250Y-150018750D03*
D14*
X226536250Y-150018750D03*
X216376250Y-150018750D03*
D16*
X218301251Y-146748750D03*
D17*
X218956250Y-146018750D03*
X223996250Y-144938750D03*
D18*
X223976250Y-145228750D03*
D12*
X288993750Y-230981250D03*
D13*
X296793750Y-230981250D03*
D22*
X267756250Y-149800000D03*
X267756250Y-150200000D03*
X267756250Y-150600000D03*
X267756250Y-151000000D03*
X267756250Y-151400000D03*
X267756250Y-151800000D03*
X267756250Y-152200000D03*
X267756250Y-152600000D03*
X267756250Y-153000000D03*
X267756250Y-153400000D03*
X267756250Y-153800000D03*
X267756250Y-154200000D03*
X267756250Y-154600000D03*
X267756250Y-155000000D03*
D23*
X266918750Y-155837500D03*
X266518750Y-155837500D03*
X266118750Y-155837500D03*
X265718750Y-155837500D03*
X265318750Y-155837500D03*
X264918750Y-155837500D03*
X264518750Y-155837500D03*
X264118750Y-155837500D03*
X263718750Y-155837500D03*
X263318750Y-155837500D03*
X262918750Y-155837500D03*
X262518750Y-155837500D03*
X262118750Y-155837500D03*
X261718750Y-155837500D03*
D22*
X260881250Y-155000000D03*
X260881250Y-154600000D03*
X260881250Y-154200000D03*
X260881250Y-153800000D03*
X260881250Y-153400000D03*
X260881250Y-153000000D03*
X260881250Y-152600000D03*
X260881250Y-152200000D03*
X260881250Y-151800000D03*
X260881250Y-151400000D03*
X260881250Y-151000000D03*
X260881250Y-150600000D03*
X260881250Y-150200000D03*
X260881250Y-149800000D03*
D23*
X261718750Y-148962500D03*
X262118750Y-148962500D03*
X262518750Y-148962500D03*
X262918750Y-148962500D03*
X263318750Y-148962500D03*
X263718750Y-148962500D03*
X264118750Y-148962500D03*
X264518750Y-148962500D03*
X264918750Y-148962500D03*
X265318750Y-148962500D03*
X265718750Y-148962500D03*
X266118750Y-148962500D03*
X266518750Y-148962500D03*
X266918750Y-148962500D03*
D24*
X264318750Y-152400000D03*
D25*
X265256250Y-141925000D03*
X265256250Y-143825000D03*
X263381250Y-142875000D03*
D26*
X265456250Y-128828125D03*
X265456250Y-129778125D03*
X265456250Y-130728125D03*
X263181250Y-130728125D03*
X263181250Y-129778125D03*
X263181250Y-128828125D03*
M02*
